<svg width="423" height="376" viewBox="0 0 423 376" fill="none" xmlns="http://www.w3.org/2000/svg">
<g clip-path="url(#clip0_1082_2808)">
<path d="M211.5 94.2147C277.89 94.2147 337.142 127.112 366.415 179.246C366.751 179.845 366.751 180.577 366.415 181.176C337.142 233.31 277.89 266.207 211.5 266.207C145.11 266.207 85.8582 233.31 56.5849 181.176C56.2485 180.577 56.2485 179.845 56.5849 179.246C85.8582 127.112 145.11 94.2147 211.5 94.2147ZM211.5 62.9434C123.722 62.9434 48.7099 111.188 17.9878 179.4C17.7555 179.916 17.7555 180.506 17.9878 181.022C48.7099 249.234 123.722 297.479 211.5 297.479C299.278 297.479 374.29 249.234 405.012 181.022C405.245 180.506 405.245 179.916 405.012 179.4C374.29 111.188 299.278 62.9434 211.5 62.9434Z" fill="#353434"/>
<mask id="path-2-inside-1_1082_2808" fill="white">
<rect x="160.836" y="134.523" width="102.935" height="91.3171" rx="2"/>
</mask>
<rect x="160.836" y="134.523" width="102.935" height="91.3171" rx="2" stroke="#353434" stroke-width="50" mask="url(#path-2-inside-1_1082_2808)"/>
</g>
<path d="M8 1H423V369H8V1Z" fill="url(#paint0_linear_1082_2808)"/>
<defs>
<linearGradient id="paint0_linear_1082_2808" x1="194.5" y1="264" x2="435.741" y2="45.5422" gradientUnits="userSpaceOnUse">
<stop stop-color="#171717"/>
<stop offset="1" stop-color="#171717" stop-opacity="0.21"/>
</linearGradient>
<clipPath id="clip0_1082_2808">
<rect width="423" height="375.256" fill="white" transform="translate(0 0.402344)"/>
</clipPath>
</defs>
</svg>
