<svg width="423" height="376" viewBox="0 0 423 376" fill="none" xmlns="http://www.w3.org/2000/svg">
<g clip-path="url(#clip0_873_934)">
<path d="M211.5 94.2157C277.89 94.2157 337.142 127.113 366.415 179.247C366.751 179.846 366.751 180.578 366.415 181.177C337.142 233.311 277.89 266.208 211.5 266.208C145.11 266.208 85.8582 233.311 56.5849 181.177C56.2485 180.578 56.2485 179.846 56.5849 179.247C85.8582 127.113 145.11 94.2157 211.5 94.2157ZM211.5 62.9443C123.722 62.9443 48.7099 111.189 17.9878 179.401C17.7555 179.917 17.7555 180.507 17.9878 181.023C48.7099 249.235 123.722 297.48 211.5 297.48C299.278 297.48 374.29 249.235 405.012 181.023C405.245 180.507 405.245 179.917 405.012 179.401C374.29 111.189 299.278 62.9443 211.5 62.9443Z" fill="#292929"/>
<mask id="path-2-inside-1_873_934" fill="white">
<rect x="160.836" y="134.524" width="102.935" height="91.3171" rx="2"/>
</mask>
<rect x="160.836" y="134.524" width="102.935" height="91.3171" rx="2" stroke="#292929" stroke-width="50" mask="url(#path-2-inside-1_873_934)"/>
</g>
<path d="M8 1H423V369H8V1Z" fill="url(#paint0_linear_873_934)"/>
<defs>
<linearGradient id="paint0_linear_873_934" x1="194.5" y1="264" x2="435.741" y2="45.5422" gradientUnits="userSpaceOnUse">
<stop stop-color="#121212"/>
<stop offset="1" stop-color="#121212" stop-opacity="0.21"/>
</linearGradient>
<clipPath id="clip0_873_934">
<rect width="423" height="375.256" fill="white" transform="translate(0 0.40332)"/>
</clipPath>
</defs>
</svg>
