<?xml version="1.0" encoding="UTF-8"?>
<svg id="Layer_1" data-name="Layer 1" xmlns="http://www.w3.org/2000/svg" viewBox="0 0 594.42 148.97">
  <defs>
    <style>
      .cls-1 {
        fill: #fff;
      }

      .cls-1, .cls-2 {
        stroke-width: 0px;
      }

      .cls-2 {
        fill: #f1ba1d;
      }
    </style>
  </defs>
  <rect class="cls-2" x="34.05" y="58.2" width="19.68" height="19.68"/>
  <polygon class="cls-2" points="495.38 31.42 472.2 88.19 466.11 103.02 434.49 31.68 426.71 31.68 462.41 111.61 460.96 115.74 447.92 147.66 456.02 147.72 503.63 31.68 495.38 31.42"/>
  <path class="cls-2" d="m377.49,103.05c-19.3,0-35-15.7-35-35h78.88c0-24.19-19.68-43.89-43.88-43.89s-43.89,19.69-43.89,43.89,19.69,43.89,43.89,43.89c21.3,0,39.07-15.28,43.02-35.44h-9.18c-3.8,15.21-17.48,26.55-33.84,26.55Zm0-70c16.37,0,30.04,11.35,33.84,26.56h-67.77c3.79-15.23,17.54-26.56,33.93-26.56Z"/>
  <path class="cls-1" d="m245.35,103.05c-19.3,0-35-15.7-35-35h78.88c0-24.19-19.68-43.89-43.88-43.89s-43.89,19.69-43.89,43.89,19.69,43.89,43.89,43.89c21.3,0,39.07-15.28,43.02-35.44h-9.18c-3.8,15.21-17.48,26.55-33.85,26.55Zm0-70c16.37,0,30.05,11.35,33.85,26.56h-67.77c3.79-15.23,17.55-26.56,33.93-26.56Z"/>
  <path class="cls-1" d="m100.62,111.61V31.42h8.31v80.19h-8.31Z"/>
  <path class="cls-1" d="m150.44,69.45l-29.89-38.04h9.34l26.15,32.38,25.95-32.38h9.34l-30.72,38.04,33.82,42.15h-9.34l-29.88-35.77-28.43,35.77h-9.55l33.21-42.15Z"/>
  <path class="cls-1" d="m310.03,111.61V0h8.31v111.61h-8.31Z"/>
  <path class="cls-1" d="m43.89,24.15C19.7,24.15,0,43.85,0,68.04c0,.99.22,1.91.29,2.87v78.05h8.31v-55.08c8,10.89,20.78,18.05,35.29,18.05,24.19,0,43.88-19.68,43.88-43.89s-19.68-43.89-43.88-43.89Zm0,78.9c-19.29,0-35.01-15.7-35.01-35.01s15.71-34.99,35.01-34.99,34.99,15.7,34.99,34.99-15.7,35.01-34.99,35.01Z"/>
  <path class="cls-2" d="m550.54,103.05c-19.3,0-35-15.7-35-35h78.88c0-24.19-19.68-43.89-43.88-43.89s-43.89,19.69-43.89,43.89,19.69,43.89,43.89,43.89c21.3,0,39.07-15.28,43.02-35.44h-9.18c-3.8,15.21-17.48,26.55-33.85,26.55Zm0-70c16.37,0,30.05,11.35,33.85,26.56h-67.77c3.79-15.23,17.55-26.56,33.93-26.56Z"/>
</svg>